<?xml version="1.0" encoding="utf-8"?>
<!-- Generator: Adobe Illustrator 25.4.1, SVG Export Plug-In . SVG Version: 6.00 Build 0)  -->
<svg version="1.0"
	 id="Horizontal" xmlns:cc="http://creativecommons.org/ns#" xmlns:dc="http://purl.org/dc/elements/1.1/" xmlns:inkscape="http://www.inkscape.org/namespaces/inkscape" xmlns:rdf="http://www.w3.org/1999/02/22-rdf-syntax-ns#" xmlns:sodipodi="http://sodipodi.sourceforge.net/DTD/sodipodi-0.dtd" xmlns:svg="http://www.w3.org/2000/svg"
	 xmlns="http://www.w3.org/2000/svg" xmlns:xlink="http://www.w3.org/1999/xlink" x="0px" y="0px" viewBox="0 0 986.2 212.4"
	 enable-background="new 0 0 986.2 212.4" xml:space="preserve">
<g id="g55" transform="matrix(1.4152,0,0,1.4152,-865.53632,-658.03262)">
	<path id="path41" fill="#1C1E20" d="M956.2,507.7c-8.8,0-17.4,3.3-23.7,9.6c-6.3,6.3-9.5,15-9.5,23.7c0,8.8,3.1,17.4,9.3,23.8
		c6.2,6.4,14.8,9.7,23.6,9.7s17.4-3.3,23.7-9.6s9.5-15,9.5-23.7c0-8.8-3.1-17.4-9.3-23.8C973.5,511.1,965,507.7,956.2,507.7z
		 M973.8,545c-0.2,1.2-0.6,2.4-1,3.6c-0.4,1.1-1,2.2-1.6,3.2s-1.3,1.9-2.1,2.7s-1.7,1.5-2.6,2.2c-1,0.6-2,1.2-3.1,1.6
		c-1.1,0.5-2.3,0.8-3.5,1s-2.5,0.3-3.7,0.3c-1.3,0-2.5-0.1-3.7-0.4c-1.2-0.2-2.4-0.6-3.5-1s-2.1-1-3.1-1.6c-0.9-0.6-1.8-1.4-2.6-2.2
		s-1.5-1.7-2.1-2.7s-1.2-2.1-1.6-3.2c-0.5-1.2-0.8-2.4-1-3.6c-0.2-1.3-0.3-2.6-0.3-3.9c0-1.3,0.1-2.6,0.4-3.9c0.2-1.2,0.6-2.4,1-3.6
		c0.4-1.1,1-2.2,1.6-3.2s1.3-1.9,2.1-2.7s1.7-1.5,2.6-2.2c1-0.6,2-1.2,3.1-1.6c1.1-0.5,2.3-0.8,3.5-1s2.5-0.3,3.7-0.3
		c1.3,0,2.5,0.1,3.7,0.4c1.2,0.2,2.4,0.6,3.5,1s2.1,1,3.1,1.6c0.9,0.6,1.8,1.4,2.6,2.2s1.5,1.7,2.1,2.7s1.2,2.1,1.6,3.2
		c0.5,1.2,0.8,2.4,1,3.6c0.2,1.3,0.3,2.6,0.3,3.9C974.1,542.5,974,543.7,973.8,545z"/>
	<path id="path43" fill="#1C1E20" d="M832.2,482c-8.7-7-18.8-11.9-29.7-14.5c-6.2-1.5-12.5-2.2-18.9-2.4c-4.7-0.2-9.5-0.1-14.2-0.1
		h-67.3c-4.7,0-9.5,0-14.2,0.1c-6.4,0.2-12.6,0.9-18.9,2.4c-10.9,2.6-20.9,7.5-29.6,14.5c-17.6,14.1-27.8,35.4-27.8,58
		s10.2,43.9,27.8,58c8.7,7,18.8,11.9,29.7,14.5c6.2,1.5,12.5,2.2,18.9,2.4c4.7,0.2,9.5,0.1,14.2,0.1h67.3c4.7,0,9.5,0,14.2-0.1
		c6.4-0.2,12.6-0.9,18.9-2.4c10.9-2.6,20.9-7.5,29.6-14.5c17.6-14.1,27.8-35.4,27.8-58S849.8,496.1,832.2,482z M799.3,560.2
		c-3.3,2.3-7,3.7-10.9,4.3s-7.9,0.5-11.8,0.5h-81.5c-4,0-7.9,0.1-11.8-0.5c-4-0.6-7.6-2-10.9-4.3c-6.6-4.6-10.6-12.1-10.6-20.2
		c0-8.1,4-15.6,10.6-20.2c3.3-2.3,7-3.7,10.9-4.3s7.9-0.5,11.8-0.5h81.5c4,0,7.9-0.1,11.8,0.5c4,0.6,7.6,2,10.9,4.3
		c6.6,4.6,10.6,12.1,10.6,20.2C810,548.1,806,555.6,799.3,560.2z"/>
	<path id="path45" fill="#1C1E20" d="M1225.8,539.2c0,1.8,0,3.6-0.1,5.3c-0.1,1.1-0.2,2.3-0.4,3.4c-0.4,2.1-1.1,4.1-2.2,5.9
		c-2.8,4.4-7.8,6.6-12.8,6.7c-5.1,0.1-10-2-12.7-6.6c-1.1-1.9-1.8-3.9-2.2-6c-0.5-2.8-0.7-5.8-0.7-8.6c0-1.9-0.1-3.7-0.1-5.6v-9.6
		v-15.2h-15.2v25.9c0,2.5,0,5,0.1,7.5c0.1,1.8,0.1,3.7,0.3,5.5c0.4,4.3,1.2,8.5,3.1,12.5c4,8.1,11.8,12.8,20.5,13.8
		c4.3,0.5,8.7,0.1,12.8-1.1c4-1.2,8.2-3.2,11.1-6.3c0.1,2,0.3,4.2,0.4,6.2h13.3v-64h-15.2L1225.8,539.2z"/>
	<path id="path47" fill="#1C1E20" d="M1307.4,547.9c-2.2-6.2-7.6-10-13.3-12.2c-3.2-1.3-6.5-2-9.8-2.8c-1.5-0.3-2.9-0.6-4.4-1
		c-1.2-0.3-2.5-0.7-3.7-1.2c-1.3-0.6-2.6-1.3-3.5-2.4c-0.8-0.9-1.2-2.1-1-3.3c0.2-1.4,1-2.6,2.1-3.5c0.8-0.6,1.6-1.1,2.5-1.4
		c1.2-0.5,2.4-0.7,3.6-0.9c2.5-0.3,5-0.1,7.4,0.4c3.7,0.8,7.1,2.2,10.3,4.2c2.5-3.5,5.1-6.9,7.6-10.4c-5.1-3.7-10.8-6-17-7
		c-3.5-0.5-7-0.6-10.4-0.1c-2.7,0.4-5.3,1-7.8,2.1c-3.3,1.4-6.3,3.4-8.6,6.3c-1.7,2-2.9,4.4-3.6,6.9c-0.9,3.1-0.9,6.4,0.1,9.6
		c0.9,2.9,2.6,5.3,4.8,7.3c4.7,4.1,11.4,5.6,17.1,6.8c2,0.4,4,0.8,6,1.4c1.6,0.5,3.3,1,4.7,1.9c1.1,0.7,2.2,1.6,2.9,2.7
		c0.6,1,0.9,2.1,0.8,3.2c-0.1,1.1-0.5,2-1.2,2.9c-0.8,1-1.8,1.7-2.9,2.3c-1.5,0.7-3.1,1.1-4.7,1.3c-2.2,0.3-4.6,0.2-6.8-0.1
		c-2.5-0.3-4.8-0.9-7.2-1.7c-3.6-1.3-6.7-3.2-9.7-5.5c-2.7,3.6-5.4,7.2-8.1,10.8c4.8,4,10.3,6.9,16.3,8.7c3.3,0.9,6.7,1.5,10.2,1.6
		c2.8,0.1,5.5-0.1,8.3-0.5c3.5-0.6,7-1.7,10.1-3.6c2.3-1.4,4.2-3.1,5.9-5.2c2.1-2.7,3.4-5.9,3.9-9.3
		C1308.6,553.4,1308.4,550.6,1307.4,547.9L1307.4,547.9z"/>
	<path id="path49" fill="#1C1E20" d="M1038.3,559c-3.5,0.8-7.3,0.7-10.8-0.4c-3.5-1.1-6.5-3.3-8.7-6.3c-2.1-3-3.2-6.6-3.4-10.2
		c-0.2-3.6,0.5-7.4,2.2-10.6c1.8-3.4,4.4-5.7,7.9-7.2c1.5-0.6,3-1.1,4.6-1.3c2.1-0.3,4-0.4,6.1-0.1c3.7,0.4,7.1,1.8,10.2,3.8
		c3.1-3.9,6.1-7.8,9.2-11.6c-5.3-4.2-11.3-6.6-17.9-7.3c-6.5-0.7-13.2,0.3-19.2,3.1c-6,2.9-10.8,7.4-14,13.3
		c-3.1,5.8-4.4,12.5-4.1,19c0.3,6.5,2.3,13,6.1,18.4c3.8,5.5,9.2,9.4,15.5,11.5c6.2,2.1,13,2.5,19.4,1.1s12.4-4.5,17-9.3
		c-3.5-3.6-6.9-7.2-10.4-10.8C1045.1,556.5,1041.8,558.2,1038.3,559L1038.3,559z"/>
	<rect id="rect51" x="1147" y="475" fill="#1C1E20" width="16" height="98"/>
	<path id="path53" fill="#1C1E20" d="M1114.2,539.2c0,1.8,0,3.6-0.1,5.3c-0.1,1.1-0.2,2.3-0.4,3.4c-0.4,2.1-1.1,4.1-2.2,5.9
		c-2.8,4.4-7.8,6.6-12.8,6.7c-5.1,0.1-10-2-12.7-6.6c-1.1-1.9-1.8-3.9-2.2-6c-0.5-2.8-0.7-5.8-0.7-8.6c0-1.9-0.1-3.7-0.1-5.6v-9.6
		v-15.2h-15.2v25.9c0,2.5,0,5,0.1,7.5c0.1,1.8,0.1,3.7,0.3,5.5c0.4,4.3,1.2,8.5,3.1,12.5c4,8.1,11.8,12.8,20.5,13.8
		c4.3,0.5,8.7,0.1,12.8-1.1c4-1.2,8.2-3.2,11.1-6.3c0.1,2,0.3,4.2,0.4,6.2h12.9v-64h-14.8L1114.2,539.2z"/>
</g>
</svg>
